<?xml version="1.0" encoding="UTF-8"?>
<svg id="Layer_2" data-name="Layer 2" xmlns="http://www.w3.org/2000/svg" viewBox="0 0 206.76 51.96">
  <defs>
    <style>
      .cls-1 {
        fill: #1d6d37;
      }
    </style>
  </defs>
  <g id="Layer_1-2" data-name="Layer 1">
    <g>
      <g>
        <path d="M204.53,16.77c-2.23-.94-4.59-1.41-7.08-1.41-3.04,0-5.81,.59-8.32,1.77-2.51,1.18-4.64,2.77-6.39,4.77-1.75,2-3.11,4.3-4.08,6.91-.97,2.6-1.45,5.3-1.45,8.1,0,2.27,.38,4.32,1.14,6.15,.76,1.83,1.84,3.41,3.25,4.74,1.4,1.33,3.08,2.35,5.04,3.07,1.96,.72,4.13,1.08,6.53,1.08,2.9,0,5.92-.53,8.13-1.6l1.56-9.33c-1.06,1.11-2.93,2.12-4.2,2.87-1.27,.75-2.94,1.12-5.01,1.12-1.47,0-2.74-.25-3.8-.76-1.06-.51-1.93-1.18-2.63-2.03-.69-.85-1.2-1.81-1.52-2.9-.32-1.09-.48-2.24-.48-3.45,0-.89,.08-1.77,.22-2.63s.37-1.7,.67-2.52c.6-1.64,1.41-3.1,2.45-4.35,1.04-1.26,2.28-2.25,3.73-2.98,1.45-.72,3.03-1.09,4.73-1.09,1.47,0,2.8,.47,4.14,1.01,1.4,.57,3.56,1.86,4.16,2.92l1.43-8.53c-1.93-.82,0,0-2.23-.94Z"/>
        <path d="M168.48,18.79c-1.43-1.33-3.12-2.35-5.08-3.07-1.36-.5-2.82-.82-4.37-.97-.68-.07-1.37-.11-2.09-.11-3.04,0-5.79,.59-8.25,1.77-2.46,1.18-4.57,2.76-6.32,4.74-1.75,1.98-3.1,4.25-4.04,6.83-.94,2.58-1.42,5.29-1.42,8.13,0,2.27,.4,4.31,1.21,6.14,.81,1.83,1.92,3.42,3.35,4.77,1.43,1.35,2.89,2.65,4.85,3.37,1.62,.6,3.5,1,5.41,1.12,.4,.03,.8,.06,1.19,.06,3.04,0,5.81-.94,8.3-2.1,2.49-1.16,4.6-2.72,6.35-4.7,1.75-1.98,3.1-4.26,4.04-6.87,.94-2.6,1.42-5.35,1.42-8.24,0-2.22-.4-4.25-1.21-6.11-.81-1.85-1.92-3.45-3.35-4.77Zm-4.42,17.03c-.55,1.67-1.32,3.13-2.31,4.39-.99,1.26-2.2,2.25-3.63,2.97-1.43,.73-3.02,1.09-4.76,1.09-.06,0-.12-.01-.18-.02-2.58-.04-4.6-.87-6.04-2.52-1.47-1.69-2.21-3.84-2.21-6.45,0-1.84,.28-3.58,.83-5.22,.55-1.64,1.32-3.09,2.31-4.35,.99-1.26,2.19-2.26,3.59-3.01,1.4-.75,2.98-1.12,4.73-1.12,.44,0,.85,.06,1.26,.11,2.03,.24,3.69,1.02,4.95,2.43,1.52,1.69,2.28,3.84,2.28,6.45,0,1.84-.28,3.59-.83,5.26Z"/>
        <path d="M126.62,5.99c-2.16-1.63-4.13-2.99-6.75-4.05C117.28,.89,115.09,.41,111.61,0,111.58,0,94.59,0,94.59,0l-9.07,51.39h18.42c4.28,0,8.48-1.5,12.11-2.86,3.64-1.36,6.65-3.7,9.32-6.19,2.67-2.49,4.75-5.48,6.25-8.98,1.5-3.5,2.24-7.39,2.24-11.67,0-3.64-.67-6.76-2-9.36-1.34-2.6-3.09-4.72-5.25-6.35Zm-2.9,24.27c-.88,2.37-1.65,4.53-3.38,6.39-1.73,1.86-4.04,3.58-6.73,4.85-2.54,1.2-6.17,2.93-9.58,2.93h-9.23s6.82-36.64,6.94-37.09h7.64c.71,0,1.42,.1,2.11,.28,2.15,.58,3.52,1.08,4.96,1.87,1.88,1.03,3.37,2.01,4.69,3.3,1.31,1.29,2.29,2.8,2.94,4.55,.64,1.75,.97,3.58,.97,5.51,0,2.57-.44,5.04-1.31,7.41Z"/>
      </g>
      <g>
        <path class="cls-1" d="M14.33,14.17c1.73-2.07,3.8-3.73,6.21-4.97,2.42-1.24,5.08-1.87,7.98-1.87,2.67,0,16.89,0,18.58,0L48.33,0H28.8C24.75,0,20.97,.81,17.47,2.4c-3.5,1.59-6.55,3.75-9.15,6.49-2.6,2.74-4.64,5.95-6.11,9.63-1.47,3.68-2.21,7.64-2.21,11.88,0,3.13,.54,5.99,1.62,8.56,1.08,2.58,2.6,4.79,4.56,6.63,1.96,1.84,4.33,3.27,7.11,4.28,2.78,1.01,5.88,1.52,9.29,1.52,3.13,0,6.23-.35,9.29-1.03,3.06-.69,5.81-1.63,8.25-2.83,0,0,0,0,0,0l4.35-25.25s0,0,0,0c0,0-27.05,0-27.05,0l-1.78,7.16,19.23,.2s0,0,0,0l-2.14,12.42s0,0,0,0c-1.67,2.11-7.11,2.29-8.91,2.29-2.35,0-4.45-.8-6.31-1.53-1.86-.74-3.44-1.75-4.73-3.04-1.29-1.29-2.27-2.83-2.93-4.63-.67-1.8-1-3.75-1-5.87,0-2.76,.48-5.46,1.45-8.08,.97-2.62,2.31-4.97,4.04-7.04Z"/>
        <path class="cls-1" d="M82.25,23.47c-.81-1.85-1.92-3.44-3.35-4.77-1.43-1.33-3.12-2.35-5.08-3.07-1.46-.54-3.04-.84-4.71-.98-.2-.02-.39-.06-.6-.07-.38-.02-.76-.03-1.15-.03-.18,0-.36,0-.54,0-2.83,.07-5.4,.65-7.72,1.76-2.46,1.18-4.57,2.76-6.32,4.74-1.75,1.98-3.1,4.25-4.04,6.83-.94,2.58-1.42,5.29-1.42,8.13,0,2.27,.4,4.31,1.21,6.14,.81,1.83,1.92,3.42,3.35,4.77,1.43,1.35,2.86,2.63,4.82,3.35,1.96,.72,4.37,1.2,6.67,1.2,.55,0,1.1-.04,1.64-.09,2.49-.19,4.95-.77,6.99-1.72,2.49-1.16,4.24-3.02,5.99-4.99,1.75-1.98,3.1-4.26,4.04-6.87,.94-2.6,1.42-5.35,1.42-8.24,0-2.22-.4-4.25-1.21-6.11Zm-7.77,12.26c-.55,1.67-1.32,3.13-2.31,4.39-.99,1.26-2.2,2.25-3.63,2.97-.84,.43-1.74,.71-2.69,.89-.67,.12-1.35,.2-2.07,.2-2.67,0-4.74-.85-6.22-2.54-1.47-1.69-2.21-3.84-2.21-6.45,0-1.84,.28-3.58,.83-5.22,.55-1.64,1.32-3.09,2.31-4.35,.99-1.26,2.19-2.26,3.59-3.01,1.4-.75,2.98-1.12,4.73-1.12,.54,0,1.03,.06,1.52,.13,1.91,.27,3.49,1.06,4.69,2.41,1.52,1.69,2.28,3.84,2.28,6.45,0,1.84-.28,3.59-.83,5.26Z"/>
      </g>
    </g>
  </g>
</svg>